<svg xmlns="http://www.w3.org/2000/svg" viewBox="0 0 1024 1024" width="1024" height="1024"><g transform="translate(-7.27,-44.36) scale(1.01618)"><path d="M492.7,893.9C483.2,892.6 469.0,889.4 464.8,887.7L461.2,886.2L460.7,852.3C460.2,816.3 459.5,808.8 454.3,791.1C449.1,773.0 435.7,751.5 420.7,737.3C407.0,724.3 396.6,719.0 377.3,715.1C360.2,711.6 353.1,712.2 324.0,720.0C285.3,730.4 274.5,731.2 265.0,724.8C260.2,721.5 258.0,718.0 256.5,711.7C254.1,701.3 258.0,692.5 267.2,687.5C271.8,685.0 273.6,684.7 286.9,683.9C303.2,683.0 310.9,681.4 320.6,677.0C328.4,673.5 337.0,667.4 337.0,665.4C337.0,663.2 295.3,621.8 289.0,617.6C280.3,612.0 272.3,609.2 247.6,603.5C220.3,597.2 207.4,593.2 196.5,587.8C171.7,575.4 161.6,561.1 167.9,547.5C172.4,537.7 183.4,532.6 192.3,536.4C194.1,537.1 198.9,540.3 203.0,543.4C211.4,549.7 222.2,554.4 232.5,556.0C240.1,557.2 247.9,556.4 248.7,554.4C249.0,553.6 245.6,545.0 241.2,535.2C231.2,513.2 226.4,501.5 219.3,483.0C214.9,471.3 213.8,467.3 213.8,462.5C213.7,449.4 222.6,440.7 236.1,440.7C243.8,440.7 250.4,443.9 254.0,449.7C255.5,452.1 258.9,460.2 261.4,467.7C267.7,485.9 272.5,497.0 283.6,519.0C297.2,545.7 310.6,566.5 328.1,588.0C340.2,602.8 355.6,617.0 357.9,615.6C359.8,614.4 361.3,600.6 360.7,589.5C359.9,573.3 356.6,561.6 347.8,544.5C341.5,532.2 340.6,529.8 340.6,525.0C340.5,513.5 349.4,504.7 361.1,504.7C365.7,504.7 367.7,505.2 370.8,507.2C377.9,512.0 385.7,526.0 393.9,548.9C400.6,567.6 402.7,580.1 404.0,608.8C405.3,638.9 407.6,649.2 416.3,662.2C421.9,670.7 449.7,698.3 458.9,704.5C465.9,709.3 466.5,709.5 472.9,709.5C481.3,709.5 485.2,707.0 488.9,699.1C491.3,693.9 491.5,692.5 491.4,680.5C491.3,657.8 485.1,635.7 468.6,599.0C447.5,552.1 432.3,529.3 389.8,481.0C341.4,426.0 340.0,424.6 324.5,417.1C307.9,409.0 278.2,400.3 252.6,396.1C233.8,392.9 227.1,387.3 226.2,374.2C225.4,362.9 232.1,353.3 242.4,351.0C248.4,349.7 253.2,350.2 274.8,354.7C284.3,356.6 292.3,358.0 292.6,357.8C292.8,357.5 291.7,354.2 290.0,350.5C288.3,346.8 285.6,339.8 283.9,335.1C274.9,309.7 274.7,293.1 283.3,284.2C288.1,279.2 291.7,277.7 298.6,277.6C305.9,277.6 312.6,281.0 316.0,286.4C317.1,288.3 319.8,296.8 321.9,305.2C324.1,313.6 326.9,323.4 328.3,327.0C332.0,336.8 341.1,353.9 348.1,364.1C357.5,377.8 377.0,399.0 380.2,399.0C380.6,399.0 380.7,397.1 380.3,394.8C379.0,387.6 379.4,326.6 380.8,312.5C382.8,292.1 386.0,272.9 388.2,267.7C395.2,251.4 416.9,249.4 426.7,264.2C429.2,267.9 429.5,269.2 429.5,276.9C429.5,281.6 428.5,292.2 427.3,300.5C424.1,321.7 423.0,335.1 423.0,353.8C423.0,399.7 431.7,435.3 453.8,479.2C465.5,502.4 474.5,515.0 479.3,515.0C482.9,515.0 488.6,508.2 493.0,498.6C497.1,489.7 498.5,484.5 500.0,472.8C501.0,464.8 503.3,458.8 506.7,455.8C512.3,450.7 522.9,449.5 529.5,453.3C539.4,458.9 542.0,470.0 538.4,491.1C536.2,504.0 533.2,513.0 525.0,531.4C516.2,551.2 514.6,557.0 515.3,567.5C515.9,576.5 520.6,592.6 524.3,598.1C526.1,600.7 527.4,601.6 530.1,601.8C533.2,602.1 534.2,601.5 537.2,598.2C544.0,590.7 554.7,569.7 565.0,544.0C579.1,508.7 583.8,476.6 578.1,454.5C574.3,439.6 569.4,428.6 544.5,379.5C520.8,332.5 512.9,315.4 505.1,294.2C495.9,269.0 488.0,236.6 488.0,223.8C488.0,213.2 493.1,206.0 503.1,202.5C510.8,199.7 518.8,201.1 524.6,206.2C529.7,210.7 530.9,213.6 533.1,227.2C537.7,255.8 549.7,294.7 562.6,323.4C572.4,345.1 590.4,375.4 597.9,382.4C602.1,386.5 603.5,384.9 605.2,374.2C607.3,360.5 606.9,296.2 604.6,275.1C603.7,266.0 603.1,257.0 603.5,255.1C606.5,239.2 622.9,231.6 637.8,239.2C643.5,242.1 648.4,249.6 649.4,256.7C653.1,286.1 654.5,342.4 652.1,368.0C650.6,384.0 647.5,407.4 644.4,426.5C641.7,443.1 632.4,484.0 628.5,496.5C625.6,506.0 625.7,505.0 627.3,505.0C629.6,505.0 640.7,497.1 649.3,489.2C660.2,479.3 668.4,469.5 678.2,454.5C696.2,427.1 706.1,401.7 713.4,364.5C718.5,338.6 719.4,327.8 719.5,293.9L719.5,262.4L722.5,257.5C729.7,245.9 746.7,244.5 756.1,254.7C763.1,262.2 764.5,270.1 764.5,303.5C764.5,339.2 761.8,358.9 752.4,391.8C749.8,400.7 748.0,408.3 748.3,408.6C748.6,408.9 755.8,406.5 764.2,403.2C785.9,394.7 789.8,393.6 796.1,393.6C811.5,393.8 820.0,411.1 811.5,425.5C808.7,430.4 805.0,433.0 797.0,435.5C794.0,436.5 789.2,438.3 786.5,439.5C783.8,440.7 777.7,443.4 773.0,445.5C732.4,463.5 719.0,473.9 685.8,512.5C670.5,530.4 652.2,548.7 630.3,568.3C609.6,586.9 597.0,600.5 587.2,615.4C574.8,634.1 563.1,658.3 554.5,683.0C547.5,703.0 539.7,740.1 542.2,741.6C543.5,742.4 569.0,727.8 586.0,716.5C608.0,702.0 633.0,683.0 638.9,676.3C648.5,665.5 653.9,651.4 657.5,627.6C662.7,593.8 665.8,579.4 669.9,569.8C672.6,563.4 679.0,556.6 683.9,555.0C689.6,553.2 697.2,554.1 701.8,557.4C710.4,563.3 712.3,572.6 707.7,586.5C701.0,606.6 698.5,626.9 702.2,630.6C703.8,632.2 704.2,632.1 709.5,628.9C717.1,624.3 731.4,611.7 738.5,603.3C755.9,582.9 774.5,545.6 781.0,518.0C782.1,513.3 783.5,507.5 784.0,505.0C784.6,502.5 786.2,498.9 787.5,496.9C795.0,485.4 817.1,486.7 823.8,499.0C825.9,503.0 826.1,504.4 825.7,511.5C824.4,531.1 811.6,564.0 794.0,593.0C781.0,614.2 780.6,615.0 781.8,616.2C782.4,616.8 785.9,617.1 790.3,616.9C796.6,616.5 799.0,615.8 806.4,612.2C811.2,609.8 817.7,605.8 820.8,603.2C828.3,597.0 832.5,595.0 837.6,595.0C843.0,595.0 846.7,596.4 850.4,599.8C856.4,605.5 858.7,615.9 855.5,623.6C851.3,633.7 827.3,649.9 804.8,657.8C793.3,661.9 783.7,663.6 762.6,665.5C742.1,667.3 730.7,669.3 722.8,672.5C704.7,679.9 663.1,711.1 655.9,722.7L653.7,726.3L655.9,728.1C659.0,730.6 667.3,733.5 675.6,735.0C684.2,736.5 693.6,735.4 709.1,731.0C721.6,727.4 725.3,727.3 731.1,730.3C736.3,733.1 741.0,741.0 741.0,746.9C741.0,760.3 732.5,767.8 710.5,773.7C701.4,776.2 698.9,776.4 682.0,776.4C666.7,776.4 661.3,776.0 651.0,774.1C621.2,768.4 598.5,772.1 578.2,785.8C565.9,794.2 552.7,811.4 546.1,827.6C540.9,840.4 540.0,846.8 540.0,870.9C540.0,886.4 539.7,893.1 538.8,893.6C537.0,894.7 500.3,895.0 492.7,893.9Z" fill="#2DD4BF"/></g></svg>